<svg width="16" height="17" viewBox="0 0 16 17" fill="none" xmlns="http://www.w3.org/2000/svg">
<path d="M12.6667 3.16666H11.3334V2.49999C11.3334 2.32318 11.2631 2.15361 11.1381 2.02859C11.0131 1.90357 10.8435 1.83333 10.6667 1.83333C10.4899 1.83333 10.3203 1.90357 10.1953 2.02859C10.0703 2.15361 10 2.32318 10 2.49999V3.16666H6.00004V2.49999C6.00004 2.32318 5.9298 2.15361 5.80478 2.02859C5.67975 1.90357 5.51018 1.83333 5.33337 1.83333C5.15656 1.83333 4.98699 1.90357 4.86197 2.02859C4.73695 2.15361 4.66671 2.32318 4.66671 2.49999V3.16666H3.33337C2.80294 3.16666 2.29423 3.37738 1.91916 3.75245C1.54409 4.12752 1.33337 4.63623 1.33337 5.16666V13.1667C1.33337 13.6971 1.54409 14.2058 1.91916 14.5809C2.29423 14.9559 2.80294 15.1667 3.33337 15.1667H12.6667C13.1971 15.1667 13.7058 14.9559 14.0809 14.5809C14.456 14.2058 14.6667 13.6971 14.6667 13.1667V5.16666C14.6667 4.63623 14.456 4.12752 14.0809 3.75245C13.7058 3.37738 13.1971 3.16666 12.6667 3.16666ZM13.3334 13.1667C13.3334 13.3435 13.2631 13.513 13.1381 13.6381C13.0131 13.7631 12.8435 13.8333 12.6667 13.8333H3.33337C3.15656 13.8333 2.98699 13.7631 2.86197 13.6381C2.73695 13.513 2.66671 13.3435 2.66671 13.1667V8.49999H13.3334V13.1667ZM13.3334 7.16666H2.66671V5.16666C2.66671 4.98985 2.73695 4.82028 2.86197 4.69526C2.98699 4.57023 3.15656 4.49999 3.33337 4.49999H4.66671V5.16666C4.66671 5.34347 4.73695 5.51304 4.86197 5.63807C4.98699 5.76309 5.15656 5.83333 5.33337 5.83333C5.51018 5.83333 5.67975 5.76309 5.80478 5.63807C5.9298 5.51304 6.00004 5.34347 6.00004 5.16666V4.49999H10V5.16666C10 5.34347 10.0703 5.51304 10.1953 5.63807C10.3203 5.76309 10.4899 5.83333 10.6667 5.83333C10.8435 5.83333 11.0131 5.76309 11.1381 5.63807C11.2631 5.51304 11.3334 5.34347 11.3334 5.16666V4.49999H12.6667C12.8435 4.49999 13.0131 4.57023 13.1381 4.69526C13.2631 4.82028 13.3334 4.98985 13.3334 5.16666V7.16666Z" fill="#F24E1E"/>
</svg>
