<svg width="21" height="20" viewBox="0 0 21 20" fill="none" xmlns="http://www.w3.org/2000/svg">
<path d="M17.4775 17.325C17.8721 17.7083 18.4811 17.1167 18.0865 16.7417L14.8696 13.6083C15.9981 12.3954 16.6218 10.8182 16.6196 9.18334C16.6196 5.525 13.5571 2.55 9.7912 2.55C6.02527 2.55 2.96277 5.525 2.96277 9.18334C2.96277 12.8417 6.02527 15.8167 9.7912 15.8167C11.4897 15.8167 13.0596 15.2083 14.2606 14.2L17.4775 17.325ZM3.81975 9.18334C3.81975 5.98334 6.5048 3.38334 9.79034 3.38334C13.0845 3.38334 15.7609 5.98334 15.7609 9.18334C15.7609 12.3833 13.0845 14.9833 9.79034 14.9833C6.5048 14.9833 3.81975 12.3833 3.81975 9.18334Z" fill="black" fill-opacity="0.5"/>
</svg>
